<?xml version="1.0" encoding="UTF-8" standalone="no"?>
<!DOCTYPE svg PUBLIC "-//W3C//DTD SVG 1.1//EN"
 "http://www.w3.org/Graphics/SVG/1.1/DTD/svg11.dtd">
<!-- Generated by graphviz version 2.43.0 (0)
 -->
<!-- Title: %3 Pages: 1 -->
<svg width="1658pt" height="332pt"
 viewBox="0.00 0.00 1658.21 332.00" xmlns="http://www.w3.org/2000/svg" xmlns:xlink="http://www.w3.org/1999/xlink">
<g id="graph0" class="graph" transform="scale(1 1) rotate(0) translate(4 328)">
<title>%3</title>
<polygon fill="white" stroke="transparent" points="-4,4 -4,-328 1654.21,-328 1654.21,4 -4,4"/>
<!-- [root] aws_ce_anomaly_monitor.account (expand) -->
<g id="node1" class="node">
<title>[root] aws_ce_anomaly_monitor.account (expand)</title>
<polygon fill="none" stroke="black" points="984.88,-108 729.88,-108 729.88,-72 984.88,-72 984.88,-108"/>
<text text-anchor="middle" x="857.38" y="-86.3" font-family="Times,serif" font-size="14.00">aws_ce_anomaly_monitor.account</text>
</g>
<!-- [root] provider[&quot;registry.terraform.io/hashicorp/aws&quot;] -->
<g id="node4" class="node">
<title>[root] provider[&quot;registry.terraform.io/hashicorp/aws&quot;]</title>
<polygon fill="none" stroke="black" points="325.38,-36 0.12,-18 325.38,0 650.65,-18 325.38,-36"/>
<text text-anchor="middle" x="325.38" y="-14.3" font-family="Times,serif" font-size="14.00">provider[&quot;registry.terraform.io/hashicorp/aws&quot;]</text>
</g>
<!-- [root] aws_ce_anomaly_monitor.account (expand)&#45;&gt;[root] provider[&quot;registry.terraform.io/hashicorp/aws&quot;] -->
<g id="edge1" class="edge">
<title>[root] aws_ce_anomaly_monitor.account (expand)&#45;&gt;[root] provider[&quot;registry.terraform.io/hashicorp/aws&quot;]</title>
<path fill="none" stroke="black" d="M729.62,-72.19C636.76,-59.97 512.78,-43.66 426.72,-32.33"/>
<polygon fill="black" stroke="black" points="427.05,-28.85 416.68,-31.01 426.13,-35.79 427.05,-28.85"/>
</g>
<!-- [root] var.account_list -->
<g id="node5" class="node">
<title>[root] var.account_list</title>
<polygon fill="none" stroke="black" points="1034.38,-36 912.38,-36 912.38,0 1040.38,0 1040.38,-30 1034.38,-36"/>
<polyline fill="none" stroke="black" points="1034.38,-36 1034.38,-30 "/>
<polyline fill="none" stroke="black" points="1040.38,-30 1034.38,-30 "/>
<text text-anchor="middle" x="976.38" y="-14.3" font-family="Times,serif" font-size="14.00">var.account_list</text>
</g>
<!-- [root] aws_ce_anomaly_monitor.account (expand)&#45;&gt;[root] var.account_list -->
<g id="edge2" class="edge">
<title>[root] aws_ce_anomaly_monitor.account (expand)&#45;&gt;[root] var.account_list</title>
<path fill="none" stroke="black" d="M886.49,-71.88C902.05,-62.72 921.4,-51.34 938.16,-41.48"/>
<polygon fill="black" stroke="black" points="940.31,-44.28 947.16,-36.19 936.77,-38.24 940.31,-44.28"/>
</g>
<!-- [root] var.environment -->
<g id="node6" class="node">
<title>[root] var.environment</title>
<polygon fill="none" stroke="black" points="796.38,-36 668.38,-36 668.38,0 802.38,0 802.38,-30 796.38,-36"/>
<polyline fill="none" stroke="black" points="796.38,-36 796.38,-30 "/>
<polyline fill="none" stroke="black" points="802.38,-30 796.38,-30 "/>
<text text-anchor="middle" x="735.38" y="-14.3" font-family="Times,serif" font-size="14.00">var.environment</text>
</g>
<!-- [root] aws_ce_anomaly_monitor.account (expand)&#45;&gt;[root] var.environment -->
<g id="edge3" class="edge">
<title>[root] aws_ce_anomaly_monitor.account (expand)&#45;&gt;[root] var.environment</title>
<path fill="none" stroke="black" d="M827.54,-71.88C811.44,-62.64 791.38,-51.13 774.09,-41.21"/>
<polygon fill="black" stroke="black" points="775.76,-38.13 765.34,-36.19 772.27,-44.2 775.76,-38.13"/>
</g>
<!-- [root] var.type -->
<g id="node10" class="node">
<title>[root] var.type</title>
<polygon fill="none" stroke="black" points="888.38,-36 820.38,-36 820.38,0 894.38,0 894.38,-30 888.38,-36"/>
<polyline fill="none" stroke="black" points="888.38,-36 888.38,-30 "/>
<polyline fill="none" stroke="black" points="894.38,-30 888.38,-30 "/>
<text text-anchor="middle" x="857.38" y="-14.3" font-family="Times,serif" font-size="14.00">var.type</text>
</g>
<!-- [root] aws_ce_anomaly_monitor.account (expand)&#45;&gt;[root] var.type -->
<g id="edge4" class="edge">
<title>[root] aws_ce_anomaly_monitor.account (expand)&#45;&gt;[root] var.type</title>
<path fill="none" stroke="black" d="M857.38,-71.7C857.38,-63.98 857.38,-54.71 857.38,-46.11"/>
<polygon fill="black" stroke="black" points="860.88,-46.1 857.38,-36.1 853.88,-46.1 860.88,-46.1"/>
</g>
<!-- [root] aws_ce_anomaly_monitor.service (expand) -->
<g id="node2" class="node">
<title>[root] aws_ce_anomaly_monitor.service (expand)</title>
<polygon fill="none" stroke="black" points="711.88,-108 460.88,-108 460.88,-72 711.88,-72 711.88,-108"/>
<text text-anchor="middle" x="586.38" y="-86.3" font-family="Times,serif" font-size="14.00">aws_ce_anomaly_monitor.service</text>
</g>
<!-- [root] aws_ce_anomaly_monitor.service (expand)&#45;&gt;[root] provider[&quot;registry.terraform.io/hashicorp/aws&quot;] -->
<g id="edge5" class="edge">
<title>[root] aws_ce_anomaly_monitor.service (expand)&#45;&gt;[root] provider[&quot;registry.terraform.io/hashicorp/aws&quot;]</title>
<path fill="none" stroke="black" d="M522.87,-71.97C481.88,-60.97 428.81,-46.74 388,-35.79"/>
<polygon fill="black" stroke="black" points="388.74,-32.37 378.17,-33.16 386.93,-39.13 388.74,-32.37"/>
</g>
<!-- [root] aws_ce_anomaly_monitor.service (expand)&#45;&gt;[root] var.environment -->
<g id="edge6" class="edge">
<title>[root] aws_ce_anomaly_monitor.service (expand)&#45;&gt;[root] var.environment</title>
<path fill="none" stroke="black" d="M622.83,-71.88C643.02,-62.39 668.3,-50.51 689.79,-40.42"/>
<polygon fill="black" stroke="black" points="691.49,-43.49 699.05,-36.07 688.51,-37.15 691.49,-43.49"/>
</g>
<!-- [root] aws_ce_anomaly_monitor.service (expand)&#45;&gt;[root] var.type -->
<g id="edge7" class="edge">
<title>[root] aws_ce_anomaly_monitor.service (expand)&#45;&gt;[root] var.type</title>
<path fill="none" stroke="black" d="M669.58,-71.96C709.79,-63.11 758.84,-51.44 810.65,-36.05"/>
<polygon fill="black" stroke="black" points="811.79,-39.36 820.36,-33.13 809.77,-32.66 811.79,-39.36"/>
</g>
<!-- [root] aws_ce_anomaly_subscription.this (expand) -->
<g id="node3" class="node">
<title>[root] aws_ce_anomaly_subscription.this (expand)</title>
<polygon fill="none" stroke="black" points="1203.38,-180 943.38,-180 943.38,-144 1203.38,-144 1203.38,-180"/>
<text text-anchor="middle" x="1073.38" y="-158.3" font-family="Times,serif" font-size="14.00">aws_ce_anomaly_subscription.this</text>
</g>
<!-- [root] aws_ce_anomaly_subscription.this (expand)&#45;&gt;[root] aws_ce_anomaly_monitor.account (expand) -->
<g id="edge8" class="edge">
<title>[root] aws_ce_anomaly_subscription.this (expand)&#45;&gt;[root] aws_ce_anomaly_monitor.account (expand)</title>
<path fill="none" stroke="black" d="M1020.82,-143.97C990.38,-134.1 951.87,-121.62 919.88,-111.25"/>
<polygon fill="black" stroke="black" points="920.77,-107.86 910.18,-108.11 918.61,-114.52 920.77,-107.86"/>
</g>
<!-- [root] aws_ce_anomaly_subscription.this (expand)&#45;&gt;[root] aws_ce_anomaly_monitor.service (expand) -->
<g id="edge9" class="edge">
<title>[root] aws_ce_anomaly_subscription.this (expand)&#45;&gt;[root] aws_ce_anomaly_monitor.service (expand)</title>
<path fill="none" stroke="black" d="M954.87,-143.97C882.25,-133.53 789.29,-120.17 714.9,-109.47"/>
<polygon fill="black" stroke="black" points="715.4,-106.01 705,-108.05 714.4,-112.94 715.4,-106.01"/>
</g>
<!-- [root] var.sns_topic_arn -->
<g id="node7" class="node">
<title>[root] var.sns_topic_arn</title>
<polygon fill="none" stroke="black" points="1137.38,-108 1003.38,-108 1003.38,-72 1143.38,-72 1143.38,-102 1137.38,-108"/>
<polyline fill="none" stroke="black" points="1137.38,-108 1137.38,-102 "/>
<polyline fill="none" stroke="black" points="1143.38,-102 1137.38,-102 "/>
<text text-anchor="middle" x="1073.38" y="-86.3" font-family="Times,serif" font-size="14.00">var.sns_topic_arn</text>
</g>
<!-- [root] aws_ce_anomaly_subscription.this (expand)&#45;&gt;[root] var.sns_topic_arn -->
<g id="edge10" class="edge">
<title>[root] aws_ce_anomaly_subscription.this (expand)&#45;&gt;[root] var.sns_topic_arn</title>
<path fill="none" stroke="black" d="M1073.38,-143.7C1073.38,-135.98 1073.38,-126.71 1073.38,-118.11"/>
<polygon fill="black" stroke="black" points="1076.88,-118.1 1073.38,-108.1 1069.88,-118.1 1076.88,-118.1"/>
</g>
<!-- [root] var.tags -->
<g id="node8" class="node">
<title>[root] var.tags</title>
<polygon fill="none" stroke="black" points="1229.38,-108 1161.38,-108 1161.38,-72 1235.38,-72 1235.38,-102 1229.38,-108"/>
<polyline fill="none" stroke="black" points="1229.38,-108 1229.38,-102 "/>
<polyline fill="none" stroke="black" points="1235.38,-102 1229.38,-102 "/>
<text text-anchor="middle" x="1198.38" y="-86.3" font-family="Times,serif" font-size="14.00">var.tags</text>
</g>
<!-- [root] aws_ce_anomaly_subscription.this (expand)&#45;&gt;[root] var.tags -->
<g id="edge11" class="edge">
<title>[root] aws_ce_anomaly_subscription.this (expand)&#45;&gt;[root] var.tags</title>
<path fill="none" stroke="black" d="M1103.96,-143.88C1120.46,-134.64 1141.01,-123.13 1158.72,-113.21"/>
<polygon fill="black" stroke="black" points="1160.67,-116.13 1167.69,-108.19 1157.25,-110.02 1160.67,-116.13"/>
</g>
<!-- [root] var.threshold -->
<g id="node9" class="node">
<title>[root] var.threshold</title>
<polygon fill="none" stroke="black" points="1358.88,-108 1253.88,-108 1253.88,-72 1364.88,-72 1364.88,-102 1358.88,-108"/>
<polyline fill="none" stroke="black" points="1358.88,-108 1358.88,-102 "/>
<polyline fill="none" stroke="black" points="1364.88,-102 1358.88,-102 "/>
<text text-anchor="middle" x="1309.38" y="-86.3" font-family="Times,serif" font-size="14.00">var.threshold</text>
</g>
<!-- [root] aws_ce_anomaly_subscription.this (expand)&#45;&gt;[root] var.threshold -->
<g id="edge12" class="edge">
<title>[root] aws_ce_anomaly_subscription.this (expand)&#45;&gt;[root] var.threshold</title>
<path fill="none" stroke="black" d="M1130.81,-143.97C1164.98,-133.83 1208.45,-120.94 1243.95,-110.41"/>
<polygon fill="black" stroke="black" points="1245.14,-113.71 1253.73,-107.51 1243.15,-106.99 1245.14,-113.71"/>
</g>
<!-- [root] output.cost_anomaly_subscription_arn (expand) -->
<g id="node11" class="node">
<title>[root] output.cost_anomaly_subscription_arn (expand)</title>
<ellipse fill="none" stroke="black" cx="788.38" cy="-234" rx="260.75" ry="18"/>
<text text-anchor="middle" x="788.38" y="-230.3" font-family="Times,serif" font-size="14.00">[root] output.cost_anomaly_subscription_arn (expand)</text>
</g>
<!-- [root] output.cost_anomaly_subscription_arn (expand)&#45;&gt;[root] aws_ce_anomaly_subscription.this (expand) -->
<g id="edge13" class="edge">
<title>[root] output.cost_anomaly_subscription_arn (expand)&#45;&gt;[root] aws_ce_anomaly_subscription.this (expand)</title>
<path fill="none" stroke="black" d="M855.2,-216.59C896.81,-206.37 950.54,-193.17 994.26,-182.43"/>
<polygon fill="black" stroke="black" points="995.13,-185.82 1004,-180.04 993.46,-179.03 995.13,-185.82"/>
</g>
<!-- [root] provider[&quot;registry.terraform.io/hashicorp/aws&quot;] (close) -->
<g id="node12" class="node">
<title>[root] provider[&quot;registry.terraform.io/hashicorp/aws&quot;] (close)</title>
<ellipse fill="none" stroke="black" cx="1358.38" cy="-234" rx="291.65" ry="18"/>
<text text-anchor="middle" x="1358.38" y="-230.3" font-family="Times,serif" font-size="14.00">[root] provider[&quot;registry.terraform.io/hashicorp/aws&quot;] (close)</text>
</g>
<!-- [root] provider[&quot;registry.terraform.io/hashicorp/aws&quot;] (close)&#45;&gt;[root] aws_ce_anomaly_subscription.this (expand) -->
<g id="edge14" class="edge">
<title>[root] provider[&quot;registry.terraform.io/hashicorp/aws&quot;] (close)&#45;&gt;[root] aws_ce_anomaly_subscription.this (expand)</title>
<path fill="none" stroke="black" d="M1290.84,-216.41C1249.46,-206.25 1196.28,-193.19 1152.87,-182.52"/>
<polygon fill="black" stroke="black" points="1153.46,-179.06 1142.92,-180.08 1151.79,-185.86 1153.46,-179.06"/>
</g>
<!-- [root] root -->
<g id="node13" class="node">
<title>[root] root</title>
<ellipse fill="none" stroke="black" cx="1073.38" cy="-306" rx="58.49" ry="18"/>
<text text-anchor="middle" x="1073.38" y="-302.3" font-family="Times,serif" font-size="14.00">[root] root</text>
</g>
<!-- [root] root&#45;&gt;[root] output.cost_anomaly_subscription_arn (expand) -->
<g id="edge15" class="edge">
<title>[root] root&#45;&gt;[root] output.cost_anomaly_subscription_arn (expand)</title>
<path fill="none" stroke="black" d="M1029.16,-294.14C985.47,-283.41 917.73,-266.77 865.22,-253.87"/>
<polygon fill="black" stroke="black" points="865.81,-250.41 855.26,-251.43 864.14,-257.21 865.81,-250.41"/>
</g>
<!-- [root] root&#45;&gt;[root] provider[&quot;registry.terraform.io/hashicorp/aws&quot;] (close) -->
<g id="edge16" class="edge">
<title>[root] root&#45;&gt;[root] provider[&quot;registry.terraform.io/hashicorp/aws&quot;] (close)</title>
<path fill="none" stroke="black" d="M1117.6,-294.14C1161.15,-283.44 1228.58,-266.88 1281.02,-254"/>
<polygon fill="black" stroke="black" points="1282.08,-257.34 1290.96,-251.56 1280.41,-250.55 1282.08,-257.34"/>
</g>
</g>
</svg>
