<?xml version="1.0" encoding="UTF-8" standalone="no"?>
<!DOCTYPE svg PUBLIC "-//W3C//DTD SVG 1.1//EN"
 "http://www.w3.org/Graphics/SVG/1.1/DTD/svg11.dtd">
<!-- Generated by graphviz version 2.43.0 (0)
 -->
<!-- Title: %3 Pages: 1 -->
<svg width="1349pt" height="332pt"
 viewBox="0.00 0.00 1349.21 332.00" xmlns="http://www.w3.org/2000/svg" xmlns:xlink="http://www.w3.org/1999/xlink">
<g id="graph0" class="graph" transform="scale(1 1) rotate(0) translate(4 328)">
<title>%3</title>
<polygon fill="white" stroke="transparent" points="-4,4 -4,-328 1345.21,-328 1345.21,4 -4,4"/>
<!-- [root] aws_ce_anomaly_monitor.this (expand) -->
<g id="node1" class="node">
<title>[root] aws_ce_anomaly_monitor.this (expand)</title>
<polygon fill="none" stroke="black" points="643.88,-108 416.88,-108 416.88,-72 643.88,-72 643.88,-108"/>
<text text-anchor="middle" x="530.38" y="-86.3" font-family="Times,serif" font-size="14.00">aws_ce_anomaly_monitor.this</text>
</g>
<!-- [root] provider[&quot;registry.terraform.io/hashicorp/aws&quot;] -->
<g id="node3" class="node">
<title>[root] provider[&quot;registry.terraform.io/hashicorp/aws&quot;]</title>
<polygon fill="none" stroke="black" points="325.38,-36 0.12,-18 325.38,0 650.65,-18 325.38,-36"/>
<text text-anchor="middle" x="325.38" y="-14.3" font-family="Times,serif" font-size="14.00">provider[&quot;registry.terraform.io/hashicorp/aws&quot;]</text>
</g>
<!-- [root] aws_ce_anomaly_monitor.this (expand)&#45;&gt;[root] provider[&quot;registry.terraform.io/hashicorp/aws&quot;] -->
<g id="edge1" class="edge">
<title>[root] aws_ce_anomaly_monitor.this (expand)&#45;&gt;[root] provider[&quot;registry.terraform.io/hashicorp/aws&quot;]</title>
<path fill="none" stroke="black" d="M480.5,-71.97C449.45,-61.37 409.58,-47.75 378.04,-36.98"/>
<polygon fill="black" stroke="black" points="379.13,-33.65 368.53,-33.73 376.87,-40.28 379.13,-33.65"/>
</g>
<!-- [root] var.environment -->
<g id="node4" class="node">
<title>[root] var.environment</title>
<polygon fill="none" stroke="black" points="796.38,-36 668.38,-36 668.38,0 802.38,0 802.38,-30 796.38,-36"/>
<polyline fill="none" stroke="black" points="796.38,-36 796.38,-30 "/>
<polyline fill="none" stroke="black" points="802.38,-30 796.38,-30 "/>
<text text-anchor="middle" x="735.38" y="-14.3" font-family="Times,serif" font-size="14.00">var.environment</text>
</g>
<!-- [root] aws_ce_anomaly_monitor.this (expand)&#45;&gt;[root] var.environment -->
<g id="edge2" class="edge">
<title>[root] aws_ce_anomaly_monitor.this (expand)&#45;&gt;[root] var.environment</title>
<path fill="none" stroke="black" d="M580.27,-71.97C609.04,-62.14 645.39,-49.73 675.67,-39.39"/>
<polygon fill="black" stroke="black" points="676.94,-42.65 685.27,-36.11 674.68,-36.03 676.94,-42.65"/>
</g>
<!-- [root] aws_ce_anomaly_subscription.this (expand) -->
<g id="node2" class="node">
<title>[root] aws_ce_anomaly_subscription.this (expand)</title>
<polygon fill="none" stroke="black" points="924.38,-180 664.38,-180 664.38,-144 924.38,-144 924.38,-180"/>
<text text-anchor="middle" x="794.38" y="-158.3" font-family="Times,serif" font-size="14.00">aws_ce_anomaly_subscription.this</text>
</g>
<!-- [root] aws_ce_anomaly_subscription.this (expand)&#45;&gt;[root] aws_ce_anomaly_monitor.this (expand) -->
<g id="edge3" class="edge">
<title>[root] aws_ce_anomaly_subscription.this (expand)&#45;&gt;[root] aws_ce_anomaly_monitor.this (expand)</title>
<path fill="none" stroke="black" d="M730.14,-143.97C692.29,-133.93 644.24,-121.19 604.76,-110.72"/>
<polygon fill="black" stroke="black" points="605.48,-107.29 594.91,-108.11 603.68,-114.06 605.48,-107.29"/>
</g>
<!-- [root] var.sns_topic_arn -->
<g id="node5" class="node">
<title>[root] var.sns_topic_arn</title>
<polygon fill="none" stroke="black" points="796.38,-108 662.38,-108 662.38,-72 802.38,-72 802.38,-102 796.38,-108"/>
<polyline fill="none" stroke="black" points="796.38,-108 796.38,-102 "/>
<polyline fill="none" stroke="black" points="802.38,-102 796.38,-102 "/>
<text text-anchor="middle" x="732.38" y="-86.3" font-family="Times,serif" font-size="14.00">var.sns_topic_arn</text>
</g>
<!-- [root] aws_ce_anomaly_subscription.this (expand)&#45;&gt;[root] var.sns_topic_arn -->
<g id="edge4" class="edge">
<title>[root] aws_ce_anomaly_subscription.this (expand)&#45;&gt;[root] var.sns_topic_arn</title>
<path fill="none" stroke="black" d="M779.06,-143.7C771.62,-135.3 762.56,-125.07 754.4,-115.86"/>
<polygon fill="black" stroke="black" points="756.78,-113.27 747.53,-108.1 751.54,-117.91 756.78,-113.27"/>
</g>
<!-- [root] var.tags -->
<g id="node6" class="node">
<title>[root] var.tags</title>
<polygon fill="none" stroke="black" points="888.38,-108 820.38,-108 820.38,-72 894.38,-72 894.38,-102 888.38,-108"/>
<polyline fill="none" stroke="black" points="888.38,-108 888.38,-102 "/>
<polyline fill="none" stroke="black" points="894.38,-102 888.38,-102 "/>
<text text-anchor="middle" x="857.38" y="-86.3" font-family="Times,serif" font-size="14.00">var.tags</text>
</g>
<!-- [root] aws_ce_anomaly_subscription.this (expand)&#45;&gt;[root] var.tags -->
<g id="edge5" class="edge">
<title>[root] aws_ce_anomaly_subscription.this (expand)&#45;&gt;[root] var.tags</title>
<path fill="none" stroke="black" d="M809.95,-143.7C817.58,-135.22 826.9,-124.86 835.26,-115.58"/>
<polygon fill="black" stroke="black" points="837.9,-117.88 841.99,-108.1 832.7,-113.2 837.9,-117.88"/>
</g>
<!-- [root] var.threshold -->
<g id="node7" class="node">
<title>[root] var.threshold</title>
<polygon fill="none" stroke="black" points="1017.88,-108 912.88,-108 912.88,-72 1023.88,-72 1023.88,-102 1017.88,-108"/>
<polyline fill="none" stroke="black" points="1017.88,-108 1017.88,-102 "/>
<polyline fill="none" stroke="black" points="1023.88,-102 1017.88,-102 "/>
<text text-anchor="middle" x="968.38" y="-86.3" font-family="Times,serif" font-size="14.00">var.threshold</text>
</g>
<!-- [root] aws_ce_anomaly_subscription.this (expand)&#45;&gt;[root] var.threshold -->
<g id="edge6" class="edge">
<title>[root] aws_ce_anomaly_subscription.this (expand)&#45;&gt;[root] var.threshold</title>
<path fill="none" stroke="black" d="M836.95,-143.88C860.95,-134.22 891.11,-122.09 916.49,-111.88"/>
<polygon fill="black" stroke="black" points="917.98,-115.05 925.95,-108.07 915.37,-108.55 917.98,-115.05"/>
</g>
<!-- [root] output.cost_anomaly_arn (expand) -->
<g id="node8" class="node">
<title>[root] output.cost_anomaly_arn (expand)</title>
<ellipse fill="none" stroke="black" cx="540.38" cy="-234" rx="198.76" ry="18"/>
<text text-anchor="middle" x="540.38" y="-230.3" font-family="Times,serif" font-size="14.00">[root] output.cost_anomaly_arn (expand)</text>
</g>
<!-- [root] output.cost_anomaly_arn (expand)&#45;&gt;[root] aws_ce_anomaly_subscription.this (expand) -->
<g id="edge7" class="edge">
<title>[root] output.cost_anomaly_arn (expand)&#45;&gt;[root] aws_ce_anomaly_subscription.this (expand)</title>
<path fill="none" stroke="black" d="M599.29,-216.76C636.18,-206.6 683.94,-193.44 722.97,-182.68"/>
<polygon fill="black" stroke="black" points="723.98,-186.03 732.69,-180 722.12,-179.28 723.98,-186.03"/>
</g>
<!-- [root] provider[&quot;registry.terraform.io/hashicorp/aws&quot;] (close) -->
<g id="node9" class="node">
<title>[root] provider[&quot;registry.terraform.io/hashicorp/aws&quot;] (close)</title>
<ellipse fill="none" stroke="black" cx="1049.38" cy="-234" rx="291.65" ry="18"/>
<text text-anchor="middle" x="1049.38" y="-230.3" font-family="Times,serif" font-size="14.00">[root] provider[&quot;registry.terraform.io/hashicorp/aws&quot;] (close)</text>
</g>
<!-- [root] provider[&quot;registry.terraform.io/hashicorp/aws&quot;] (close)&#45;&gt;[root] aws_ce_anomaly_subscription.this (expand) -->
<g id="edge8" class="edge">
<title>[root] provider[&quot;registry.terraform.io/hashicorp/aws&quot;] (close)&#45;&gt;[root] aws_ce_anomaly_subscription.this (expand)</title>
<path fill="none" stroke="black" d="M988.63,-216.32C951.98,-206.26 905.09,-193.39 866.56,-182.81"/>
<polygon fill="black" stroke="black" points="867.01,-179.31 856.44,-180.04 865.16,-186.06 867.01,-179.31"/>
</g>
<!-- [root] root -->
<g id="node10" class="node">
<title>[root] root</title>
<ellipse fill="none" stroke="black" cx="794.38" cy="-306" rx="58.49" ry="18"/>
<text text-anchor="middle" x="794.38" y="-302.3" font-family="Times,serif" font-size="14.00">[root] root</text>
</g>
<!-- [root] root&#45;&gt;[root] output.cost_anomaly_arn (expand) -->
<g id="edge9" class="edge">
<title>[root] root&#45;&gt;[root] output.cost_anomaly_arn (expand)</title>
<path fill="none" stroke="black" d="M752.44,-293.44C713.58,-282.73 655.07,-266.61 609.34,-254"/>
<polygon fill="black" stroke="black" points="610.06,-250.57 599.49,-251.29 608.2,-257.32 610.06,-250.57"/>
</g>
<!-- [root] root&#45;&gt;[root] provider[&quot;registry.terraform.io/hashicorp/aws&quot;] (close) -->
<g id="edge10" class="edge">
<title>[root] root&#45;&gt;[root] provider[&quot;registry.terraform.io/hashicorp/aws&quot;] (close)</title>
<path fill="none" stroke="black" d="M836.49,-293.44C875.1,-282.84 933.06,-266.93 978.75,-254.39"/>
<polygon fill="black" stroke="black" points="979.88,-257.71 988.6,-251.68 978.03,-250.96 979.88,-257.71"/>
</g>
</g>
</svg>
