<?xml version="1.0" encoding="UTF-8" standalone="no"?>
<!DOCTYPE svg PUBLIC "-//W3C//DTD SVG 1.1//EN"
 "http://www.w3.org/Graphics/SVG/1.1/DTD/svg11.dtd">
<!-- Generated by graphviz version 2.43.0 (0)
 -->
<!-- Title: %3 Pages: 1 -->
<svg width="1272pt" height="332pt"
 viewBox="0.00 0.00 1271.88 332.00" xmlns="http://www.w3.org/2000/svg" xmlns:xlink="http://www.w3.org/1999/xlink">
<g id="graph0" class="graph" transform="scale(1 1) rotate(0) translate(4 328)">
<title>%3</title>
<polygon fill="white" stroke="transparent" points="-4,4 -4,-328 1267.88,-328 1267.88,4 -4,4"/>
<!-- [root] aws_ce_anomaly_monitor.account (expand) -->
<g id="node1" class="node">
<title>[root] aws_ce_anomaly_monitor.account (expand)</title>
<polygon fill="none" stroke="black" points="418.5,-108 163.5,-108 163.5,-72 418.5,-72 418.5,-108"/>
<text text-anchor="middle" x="291" y="-86.3" font-family="Times,serif" font-size="14.00">aws_ce_anomaly_monitor.account</text>
</g>
<!-- [root] provider[&quot;registry.terraform.io/hashicorp/aws&quot;] -->
<g id="node4" class="node">
<title>[root] provider[&quot;registry.terraform.io/hashicorp/aws&quot;]</title>
<polygon fill="none" stroke="black" points="471,-36 145.74,-18 471,0 796.26,-18 471,-36"/>
<text text-anchor="middle" x="471" y="-14.3" font-family="Times,serif" font-size="14.00">provider[&quot;registry.terraform.io/hashicorp/aws&quot;]</text>
</g>
<!-- [root] aws_ce_anomaly_monitor.account (expand)&#45;&gt;[root] provider[&quot;registry.terraform.io/hashicorp/aws&quot;] -->
<g id="edge1" class="edge">
<title>[root] aws_ce_anomaly_monitor.account (expand)&#45;&gt;[root] provider[&quot;registry.terraform.io/hashicorp/aws&quot;]</title>
<path fill="none" stroke="black" d="M335.03,-71.88C361.75,-61.48 395.86,-48.22 423.23,-37.58"/>
<polygon fill="black" stroke="black" points="424.56,-40.82 432.61,-33.93 422.02,-34.29 424.56,-40.82"/>
</g>
<!-- [root] var.account_list -->
<g id="node5" class="node">
<title>[root] var.account_list</title>
<polygon fill="none" stroke="black" points="122,-36 0,-36 0,0 128,0 128,-30 122,-36"/>
<polyline fill="none" stroke="black" points="122,-36 122,-30 "/>
<polyline fill="none" stroke="black" points="128,-30 122,-30 "/>
<text text-anchor="middle" x="64" y="-14.3" font-family="Times,serif" font-size="14.00">var.account_list</text>
</g>
<!-- [root] aws_ce_anomaly_monitor.account (expand)&#45;&gt;[root] var.account_list -->
<g id="edge2" class="edge">
<title>[root] aws_ce_anomaly_monitor.account (expand)&#45;&gt;[root] var.account_list</title>
<path fill="none" stroke="black" d="M235.76,-71.97C203.63,-62.06 162.95,-49.51 129.25,-39.12"/>
<polygon fill="black" stroke="black" points="130.08,-35.71 119.49,-36.11 128.01,-42.4 130.08,-35.71"/>
</g>
<!-- [root] var.environment -->
<g id="node6" class="node">
<title>[root] var.environment</title>
<polygon fill="none" stroke="black" points="942,-36 814,-36 814,0 948,0 948,-30 942,-36"/>
<polyline fill="none" stroke="black" points="942,-36 942,-30 "/>
<polyline fill="none" stroke="black" points="948,-30 942,-30 "/>
<text text-anchor="middle" x="881" y="-14.3" font-family="Times,serif" font-size="14.00">var.environment</text>
</g>
<!-- [root] aws_ce_anomaly_monitor.account (expand)&#45;&gt;[root] var.environment -->
<g id="edge3" class="edge">
<title>[root] aws_ce_anomaly_monitor.account (expand)&#45;&gt;[root] var.environment</title>
<path fill="none" stroke="black" d="M418.6,-73.05C421.77,-72.69 424.9,-72.34 428,-72 592.04,-53.99 637.02,-62.09 803.83,-36.07"/>
<polygon fill="black" stroke="black" points="804.62,-39.49 813.95,-34.47 803.53,-32.58 804.62,-39.49"/>
</g>
<!-- [root] var.type -->
<g id="node10" class="node">
<title>[root] var.type</title>
<polygon fill="none" stroke="black" points="1034,-36 966,-36 966,0 1040,0 1040,-30 1034,-36"/>
<polyline fill="none" stroke="black" points="1034,-36 1034,-30 "/>
<polyline fill="none" stroke="black" points="1040,-30 1034,-30 "/>
<text text-anchor="middle" x="1003" y="-14.3" font-family="Times,serif" font-size="14.00">var.type</text>
</g>
<!-- [root] aws_ce_anomaly_monitor.account (expand)&#45;&gt;[root] var.type -->
<g id="edge4" class="edge">
<title>[root] aws_ce_anomaly_monitor.account (expand)&#45;&gt;[root] var.type</title>
<path fill="none" stroke="black" d="M418.59,-72.93C421.76,-72.61 424.9,-72.3 428,-72 659.25,-49.8 724.72,-84.34 955.8,-35.88"/>
<polygon fill="black" stroke="black" points="956.81,-39.24 965.86,-33.74 955.35,-32.4 956.81,-39.24"/>
</g>
<!-- [root] aws_ce_anomaly_monitor.service (expand) -->
<g id="node2" class="node">
<title>[root] aws_ce_anomaly_monitor.service (expand)</title>
<polygon fill="none" stroke="black" points="1067.5,-108 816.5,-108 816.5,-72 1067.5,-72 1067.5,-108"/>
<text text-anchor="middle" x="942" y="-86.3" font-family="Times,serif" font-size="14.00">aws_ce_anomaly_monitor.service</text>
</g>
<!-- [root] aws_ce_anomaly_monitor.service (expand)&#45;&gt;[root] provider[&quot;registry.terraform.io/hashicorp/aws&quot;] -->
<g id="edge5" class="edge">
<title>[root] aws_ce_anomaly_monitor.service (expand)&#45;&gt;[root] provider[&quot;registry.terraform.io/hashicorp/aws&quot;]</title>
<path fill="none" stroke="black" d="M827.38,-71.97C746.73,-59.98 640.12,-44.13 564.58,-32.91"/>
<polygon fill="black" stroke="black" points="565,-29.43 554.6,-31.42 563.97,-36.36 565,-29.43"/>
</g>
<!-- [root] aws_ce_anomaly_monitor.service (expand)&#45;&gt;[root] var.environment -->
<g id="edge6" class="edge">
<title>[root] aws_ce_anomaly_monitor.service (expand)&#45;&gt;[root] var.environment</title>
<path fill="none" stroke="black" d="M926.92,-71.7C919.61,-63.3 910.69,-53.07 902.66,-43.86"/>
<polygon fill="black" stroke="black" points="905.11,-41.34 895.91,-36.1 899.84,-45.94 905.11,-41.34"/>
</g>
<!-- [root] aws_ce_anomaly_monitor.service (expand)&#45;&gt;[root] var.type -->
<g id="edge7" class="edge">
<title>[root] aws_ce_anomaly_monitor.service (expand)&#45;&gt;[root] var.type</title>
<path fill="none" stroke="black" d="M957.08,-71.7C964.39,-63.3 973.31,-53.07 981.34,-43.86"/>
<polygon fill="black" stroke="black" points="984.16,-45.94 988.09,-36.1 978.89,-41.34 984.16,-45.94"/>
</g>
<!-- [root] aws_ce_anomaly_subscription.this (expand) -->
<g id="node3" class="node">
<title>[root] aws_ce_anomaly_subscription.this (expand)</title>
<polygon fill="none" stroke="black" points="817,-180 557,-180 557,-144 817,-144 817,-180"/>
<text text-anchor="middle" x="687" y="-158.3" font-family="Times,serif" font-size="14.00">aws_ce_anomaly_subscription.this</text>
</g>
<!-- [root] aws_ce_anomaly_subscription.this (expand)&#45;&gt;[root] aws_ce_anomaly_monitor.account (expand) -->
<g id="edge8" class="edge">
<title>[root] aws_ce_anomaly_subscription.this (expand)&#45;&gt;[root] aws_ce_anomaly_monitor.account (expand)</title>
<path fill="none" stroke="black" d="M590.63,-143.97C532.19,-133.63 457.53,-120.44 397.36,-109.8"/>
<polygon fill="black" stroke="black" points="397.91,-106.34 387.45,-108.05 396.69,-113.24 397.91,-106.34"/>
</g>
<!-- [root] aws_ce_anomaly_subscription.this (expand)&#45;&gt;[root] aws_ce_anomaly_monitor.service (expand) -->
<g id="edge9" class="edge">
<title>[root] aws_ce_anomaly_subscription.this (expand)&#45;&gt;[root] aws_ce_anomaly_monitor.service (expand)</title>
<path fill="none" stroke="black" d="M749.05,-143.97C785.46,-133.97 831.63,-121.3 869.68,-110.85"/>
<polygon fill="black" stroke="black" points="870.95,-114.13 879.67,-108.11 869.1,-107.38 870.95,-114.13"/>
</g>
<!-- [root] var.sns_topic_arn -->
<g id="node7" class="node">
<title>[root] var.sns_topic_arn</title>
<polygon fill="none" stroke="black" points="571,-108 437,-108 437,-72 577,-72 577,-102 571,-108"/>
<polyline fill="none" stroke="black" points="571,-108 571,-102 "/>
<polyline fill="none" stroke="black" points="577,-102 571,-102 "/>
<text text-anchor="middle" x="507" y="-86.3" font-family="Times,serif" font-size="14.00">var.sns_topic_arn</text>
</g>
<!-- [root] aws_ce_anomaly_subscription.this (expand)&#45;&gt;[root] var.sns_topic_arn -->
<g id="edge10" class="edge">
<title>[root] aws_ce_anomaly_subscription.this (expand)&#45;&gt;[root] var.sns_topic_arn</title>
<path fill="none" stroke="black" d="M642.97,-143.88C618.03,-134.18 586.66,-121.98 560.34,-111.74"/>
<polygon fill="black" stroke="black" points="561.48,-108.43 550.89,-108.07 558.94,-114.95 561.48,-108.43"/>
</g>
<!-- [root] var.tags -->
<g id="node8" class="node">
<title>[root] var.tags</title>
<polygon fill="none" stroke="black" points="663,-108 595,-108 595,-72 669,-72 669,-102 663,-108"/>
<polyline fill="none" stroke="black" points="663,-108 663,-102 "/>
<polyline fill="none" stroke="black" points="669,-102 663,-102 "/>
<text text-anchor="middle" x="632" y="-86.3" font-family="Times,serif" font-size="14.00">var.tags</text>
</g>
<!-- [root] aws_ce_anomaly_subscription.this (expand)&#45;&gt;[root] var.tags -->
<g id="edge11" class="edge">
<title>[root] aws_ce_anomaly_subscription.this (expand)&#45;&gt;[root] var.tags</title>
<path fill="none" stroke="black" d="M673.4,-143.7C666.88,-135.39 658.93,-125.28 651.75,-116.14"/>
<polygon fill="black" stroke="black" points="654.37,-113.81 645.44,-108.1 648.87,-118.13 654.37,-113.81"/>
</g>
<!-- [root] var.threshold -->
<g id="node9" class="node">
<title>[root] var.threshold</title>
<polygon fill="none" stroke="black" points="792.5,-108 687.5,-108 687.5,-72 798.5,-72 798.5,-102 792.5,-108"/>
<polyline fill="none" stroke="black" points="792.5,-108 792.5,-102 "/>
<polyline fill="none" stroke="black" points="798.5,-102 792.5,-102 "/>
<text text-anchor="middle" x="743" y="-86.3" font-family="Times,serif" font-size="14.00">var.threshold</text>
</g>
<!-- [root] aws_ce_anomaly_subscription.this (expand)&#45;&gt;[root] var.threshold -->
<g id="edge12" class="edge">
<title>[root] aws_ce_anomaly_subscription.this (expand)&#45;&gt;[root] var.threshold</title>
<path fill="none" stroke="black" d="M700.84,-143.7C707.49,-135.39 715.58,-125.28 722.89,-116.14"/>
<polygon fill="black" stroke="black" points="725.8,-118.1 729.32,-108.1 720.34,-113.73 725.8,-118.1"/>
</g>
<!-- [root] output.cost_anomaly_arn (expand) -->
<g id="node11" class="node">
<title>[root] output.cost_anomaly_arn (expand)</title>
<ellipse fill="none" stroke="black" cx="1065" cy="-162" rx="198.76" ry="18"/>
<text text-anchor="middle" x="1065" y="-158.3" font-family="Times,serif" font-size="14.00">[root] output.cost_anomaly_arn (expand)</text>
</g>
<!-- [root] output.cost_anomaly_arn (expand)&#45;&gt;[root] var.type -->
<g id="edge13" class="edge">
<title>[root] output.cost_anomaly_arn (expand)&#45;&gt;[root] var.type</title>
<path fill="none" stroke="black" d="M1072.6,-143.93C1079.72,-125.24 1087.67,-94.89 1076,-72 1069.77,-59.77 1059.24,-49.7 1048.1,-41.75"/>
<polygon fill="black" stroke="black" points="1049.79,-38.67 1039.51,-36.08 1045.93,-44.51 1049.79,-38.67"/>
</g>
<!-- [root] provider[&quot;registry.terraform.io/hashicorp/aws&quot;] (close) -->
<g id="node12" class="node">
<title>[root] provider[&quot;registry.terraform.io/hashicorp/aws&quot;] (close)</title>
<ellipse fill="none" stroke="black" cx="700" cy="-234" rx="291.65" ry="18"/>
<text text-anchor="middle" x="700" y="-230.3" font-family="Times,serif" font-size="14.00">[root] provider[&quot;registry.terraform.io/hashicorp/aws&quot;] (close)</text>
</g>
<!-- [root] provider[&quot;registry.terraform.io/hashicorp/aws&quot;] (close)&#45;&gt;[root] aws_ce_anomaly_subscription.this (expand) -->
<g id="edge14" class="edge">
<title>[root] provider[&quot;registry.terraform.io/hashicorp/aws&quot;] (close)&#45;&gt;[root] aws_ce_anomaly_subscription.this (expand)</title>
<path fill="none" stroke="black" d="M696.79,-215.7C695.35,-207.98 693.63,-198.71 692.04,-190.11"/>
<polygon fill="black" stroke="black" points="695.44,-189.3 690.18,-180.1 688.56,-190.58 695.44,-189.3"/>
</g>
<!-- [root] root -->
<g id="node13" class="node">
<title>[root] root</title>
<ellipse fill="none" stroke="black" cx="860" cy="-306" rx="58.49" ry="18"/>
<text text-anchor="middle" x="860" y="-302.3" font-family="Times,serif" font-size="14.00">[root] root</text>
</g>
<!-- [root] root&#45;&gt;[root] output.cost_anomaly_arn (expand) -->
<g id="edge15" class="edge">
<title>[root] root&#45;&gt;[root] output.cost_anomaly_arn (expand)</title>
<path fill="none" stroke="black" d="M906.26,-294.97C935.57,-286.93 973.07,-273.38 1001,-252 1023.05,-235.12 1040.75,-208.57 1051.9,-188.86"/>
<polygon fill="black" stroke="black" points="1054.98,-190.53 1056.7,-180.08 1048.83,-187.18 1054.98,-190.53"/>
</g>
<!-- [root] root&#45;&gt;[root] provider[&quot;registry.terraform.io/hashicorp/aws&quot;] (close) -->
<g id="edge16" class="edge">
<title>[root] root&#45;&gt;[root] provider[&quot;registry.terraform.io/hashicorp/aws&quot;] (close)</title>
<path fill="none" stroke="black" d="M827.62,-290.83C804.69,-280.8 773.54,-267.18 747.76,-255.9"/>
<polygon fill="black" stroke="black" points="749.1,-252.66 738.53,-251.86 746.29,-259.07 749.1,-252.66"/>
</g>
</g>
</svg>
